<?xml version="1.0" encoding="UTF-8" standalone="no"?>
<!-- Created with Inkscape (http://www.inkscape.org/) -->

<svg
   xmlns:dc="http://purl.org/dc/elements/1.1/"
   xmlns:cc="http://creativecommons.org/ns#"
   xmlns:rdf="http://www.w3.org/1999/02/22-rdf-syntax-ns#"
   xmlns:svg="http://www.w3.org/2000/svg"
   xmlns="http://www.w3.org/2000/svg"
   xmlns:sodipodi="http://sodipodi.sourceforge.net/DTD/sodipodi-0.dtd"
   xmlns:inkscape="http://www.inkscape.org/namespaces/inkscape"
   width="32"
   height="32"
   id="svg3058"
   version="1.1"
   inkscape:version="0.47 r22583"
   sodipodi:docname="icon.svg"
   inkscape:export-filename="/home/nfroidure/Bureau/chrome-extensions/bugmeback/icon-18.png"
   inkscape:export-xdpi="50.625"
   inkscape:export-ydpi="50.625">
  <defs
     id="defs3060">
    <inkscape:perspective
       sodipodi:type="inkscape:persp3d"
       inkscape:vp_x="0 : 526.18109 : 1"
       inkscape:vp_y="0 : 1000 : 0"
       inkscape:vp_z="744.09448 : 526.18109 : 1"
       inkscape:persp3d-origin="372.04724 : 350.78739 : 1"
       id="perspective3066" />
    <inkscape:perspective
       id="perspective3096"
       inkscape:persp3d-origin="0.5 : 0.33333333 : 1"
       inkscape:vp_z="1 : 0.5 : 1"
       inkscape:vp_y="0 : 1000 : 0"
       inkscape:vp_x="0 : 0.5 : 1"
       sodipodi:type="inkscape:persp3d" />
  </defs>
  <sodipodi:namedview
     id="base"
     pagecolor="#ffffff"
     bordercolor="#666666"
     borderopacity="1.0"
     inkscape:pageopacity="0.0"
     inkscape:pageshadow="2"
     inkscape:zoom="1"
     inkscape:cx="40.332372"
     inkscape:cy="2.3250864"
     inkscape:document-units="px"
     inkscape:current-layer="g3068"
     showgrid="false"
     inkscape:window-width="1280"
     inkscape:window-height="949"
     inkscape:window-x="0"
     inkscape:window-y="25"
     inkscape:window-maximized="1" />
  <metadata
     id="metadata3063">
    <rdf:RDF>
      <cc:Work
         rdf:about="">
        <dc:format>image/svg+xml</dc:format>
        <dc:type
           rdf:resource="http://purl.org/dc/dcmitype/StillImage" />
        <dc:title></dc:title>
      </cc:Work>
    </rdf:RDF>
  </metadata>
  <g
     inkscape:label="Calque 1"
     inkscape:groupmode="layer"
     id="layer1"
     transform="translate(0,-1020.3622)">
    <g
       transform="matrix(0.08659015,0.01054317,-0.01054317,0.08659015,-6.6027068,986.25384)"
       style="display:inline;filter:url(#filter4961)"
       id="g3068">
      <g
         id="g4016"
         inkscape:export-filename="/media/disk-1/home/user/Documents/Projects/Krita.org/krocket.png"
         inkscape:export-xdpi="28.700001"
         inkscape:export-ydpi="28.700001"
         transform="matrix(0.81432455,0,0,0.81432455,-17.937527,183.17329)">
        <path
           sodipodi:nodetypes="ccccccccccccccccccccccc"
           id="path2846"
           d="m 349.51278,471.52447 c -1.29073,-12.54275 -7.62939,-17.51362 -14.14213,-22.22336 1.43413,8.5052 2.50239,16.64453 0,21.21321 -7.97011,-8.21113 -19.38871,-13.26115 -35.35534,-14.14214 7.05563,8.08122 11.40966,16.16244 13.13198,24.24366 -15.68515,-2.10531 -31.82621,-2.8429 -49.49748,1.01015 9.96227,3.94379 23.61055,4.50872 26.26397,15.15229 -14.18851,16.83722 -28.9788,33.20639 -37.37564,54.54824 9.75467,-5.68365 19.14278,-9.90106 26.26396,-5.05076 -7.39309,17.09033 -11.65345,16.63733 -22.22335,51.51778 11.16736,-11.2539 10.48562,-5.27274 15.15228,-7.07107 l 39.39595,23.23351 c -1.03959,5.75364 2.91378,6.51431 -4.04061,18.18274 25.48483,-14.48942 37.71919,-30.30389 56.56855,-45.45686 1.49288,7.11685 0.76325,17.26439 -5.05077,34.34519 21.38502,-20.0725 26.79844,-34.58965 33.33504,-49.49748 7.21162,4.5442 13.9674,11.82337 19.1929,28.28427 2.55314,-23.09291 -4.00615,-37.07339 -9.09138,-52.52793 0.80809,-3.71722 25.37836,7.77381 28.28427,10.10153 -3.60874,-15.10561 -24.42722,-25.42667 -24.24366,-23.23351 4.0366,-4.04061 6.83521,-8.08122 19.1929,-12.12183 -10.85788,-6.93914 -19.61921,-4.44379 -29.29442,-6.06092 l -46.46702,-44.44671 z"
           style="fill:#aa4400;stroke:#000000;stroke-width:1px;stroke-linecap:butt;stroke-linejoin:miter;stroke-opacity:1" />
        <path
           sodipodi:nodetypes="cscscc"
           id="path2826"
           d="m 357.14286,472.36218 c 0,0 -40.57689,-21.33007 -69.28572,18.57143 -24.98535,34.72636 -18.78456,136.78401 -44.28572,174.28571 33.84529,-35.3837 127.72324,-59.30805 152.85714,-90 28.27643,-34.52941 5.00001,-74.28571 5.00001,-74.28571 l -44.28571,-28.57143 z"
           style="fill:#ffcc00;stroke:#000000;stroke-width:1px;stroke-linecap:butt;stroke-linejoin:miter;stroke-opacity:1" />
        <path
           sodipodi:nodetypes="csssc"
           id="path3810"
           d="m 248,660.36218 c 49.14779,-58.71881 85.35756,-55.32776 114,-89 21.39133,-25.14778 12,-56 -3,-64 -15,-8 -54.74098,-4.9204 -65,28 -11.16676,35.83324 -11.34384,65.65616 -46,125 z"
           style="fill:#ffff00;stroke:none" />
        <path
           sodipodi:nodetypes="csssc"
           id="path3814"
           d="m 244.29289,664.59441 c 1.25673,1.8851 50.29904,-82.99443 61.57538,-106.44365 9.91508,-20.61845 25.02645,-47.1301 41.13173,-37.78858 13.0105,7.54646 7.08272,35.35498 -17.42462,54.96016 -20.0964,16.07654 -87.85029,89.78563 -85.28249,89.27207 z"
           style="opacity:0.7;fill:#ffffff;stroke:none" />
      </g>
      <path
         style="fill:#b3b3b3;stroke:#000000;stroke-width:1.06197774px;stroke-linecap:butt;stroke-linejoin:miter;stroke-opacity:1"
         d="m 459.94515,359.22165 c 0,0 -105.90087,6.08268 -159.29667,92.54377 -29.96754,48.5249 -46.3233,98.25747 -55.1632,135.44618 29.36191,7.10095 47.3737,31.72575 47.3737,31.72575 0,0 49.9451,-2.71775 121.57283,-88.28216 69.37264,-82.87054 50.06467,-169.91643 45.51334,-171.43354 z"
         id="path2818"
         sodipodi:nodetypes="csccsc"
         inkscape:export-filename="/media/disk-1/home/user/Documents/Projects/Krita.org/krocket.png"
         inkscape:export-xdpi="28.700001"
         inkscape:export-ydpi="28.700001" />
      <path
         style="opacity:0.5;fill:#ffffff;stroke:none"
         d="m 400.41365,378.48117 c 0,0 -35.99605,8.26285 -72.84038,46.55775 -47.68416,49.5615 -70.21211,140.7997 -70.21211,140.7997 0,0 19.70219,-58.64512 81.79818,-133.22596 13.8904,-16.68317 54.67335,-44.21507 68.11014,-43.64668 3.56217,-4.14835 -6.85583,-11.1494 -6.85583,-10.48481 z"
         id="path3709"
         sodipodi:nodetypes="cscscc"
         inkscape:export-filename="/media/disk-1/home/user/Documents/Projects/Krita.org/krocket.png"
         inkscape:export-xdpi="28.700001"
         inkscape:export-ydpi="28.700001" />
      <path
         style="opacity:0.33333333;fill:#000033;fill-opacity:1;stroke:none"
         d="m 319.68849,600.38148 c 46.17214,-41.26407 88.39458,-92.40239 130.66211,-143.42796 0,0 -19.52423,49.56149 -51.81429,84.10435 -32.29006,34.54286 -78.84782,61.5764 -78.84782,59.32361 z"
         id="path3816"
         sodipodi:nodetypes="ccsc"
         inkscape:export-filename="/media/disk-1/home/user/Documents/Projects/Krita.org/krocket.png"
         inkscape:export-xdpi="28.700001"
         inkscape:export-ydpi="28.700001" />
      <path
         style="opacity:0.7;fill:#d9d9d9;fill-opacity:1;stroke:none"
         d="m 455.23165,360.4588 c -18.88235,4.23293 -37.93285,8.7964 -54.818,18.02236 l 7.13384,11.26398 c 14.11181,-14.20405 31.08725,-22.6808 49.18603,-28.91088 l -1.50187,-0.37546 z"
         id="path3842"
         sodipodi:nodetypes="ccccc"
         inkscape:export-filename="/media/disk-1/home/user/Documents/Projects/Krita.org/krocket.png"
         inkscape:export-xdpi="28.700001"
         inkscape:export-ydpi="28.700001" />
      <path
         style="opacity:0.44117647;fill:#000000;stroke:#000000;stroke-width:1.06197774px;stroke-linecap:butt;stroke-linejoin:miter;stroke-opacity:1"
         d="m 448.64267,416.34088 c 8.12738,-14.56879 10.6693,-33.32666 13.27472,-52.03692 l 0.77761,6.59734 c -0.58411,18.5492 0.27373,32.86575 -4.49453,48.62551 l -9.5578,-3.18593 z"
         id="path3844"
         sodipodi:nodetypes="ccccc"
         inkscape:export-filename="/media/disk-1/home/user/Documents/Projects/Krita.org/krocket.png"
         inkscape:export-xdpi="28.700001"
         inkscape:export-ydpi="28.700001" />
      <path
         style="opacity:0.19117647;fill:#ffffff;stroke:none"
         d="m 306.86863,547.49513 c 0,0 15.92967,-37.16922 45.66505,-73.27646 29.73537,-36.10725 80.71031,-81.77229 80.71031,-81.77229 0,0 -42.47911,62.65669 -66.9046,96.63998 -24.42549,33.98329 -59.47076,61.59471 -59.47076,58.40877 z"
         id="path3866"
         inkscape:export-filename="/media/disk-1/home/user/Documents/Projects/Krita.org/krocket.png"
         inkscape:export-xdpi="28.700001"
         inkscape:export-ydpi="28.700001" />
      <g
         inkscape:transform-center-y="47.271879"
         inkscape:transform-center-x="-19.696637"
         transform="matrix(1.758438,1.8403919,-1.8001185,1.719958,436.59742,-969.15216)"
         id="g3470"
         style="display:inline">
        <path
           inkscape:connector-curvature="0"
           id="path3478"
           d="m 359.932,483.48331 c 0.003,-0.6875 1.07322,-3.01454 2.37866,-5.1712 2.14035,-3.53597 2.32259,-4.73782 1.85497,-12.2332 -0.61621,-9.87709 1.17822,-22.54419 3.84648,-27.15276 2.25772,-3.8995 2.76845,-14.62875 0.66477,-13.96528 -2.00993,0.63391 -8.70092,21.75592 -8.00575,25.27244 0.52157,2.63838 0.40374,2.84438 -0.97748,1.70898 -0.8638,-0.71006 -1.853,-2.4164 -2.19822,-3.79187 -0.51808,-2.06419 -0.85684,-2.27168 -1.94017,-1.18834 -0.72188,0.72187 -1.90898,2.42702 -2.638,3.7892 -0.78958,1.47535 -1.49368,1.97214 -1.74147,1.22875 -0.2288,-0.68638 0.90815,-2.93518 2.52655,-4.99734 1.6184,-2.06216 3.24307,-5.39257 3.61038,-7.40092 1.25086,-6.83929 9.8367,-20.23354 13.95645,-21.77263 1.69557,-0.63344 1.63416,-0.88288 -0.77108,-3.13204 -2.63231,-2.4615 -6.54844,-9.73619 -7.23709,-13.44379 -0.20431,-1.1 -1.03807,-2.49961 -1.8528,-3.11024 -1.96567,-1.47326 -1.87264,-3.07139 0.24787,-4.25808 1.62946,-0.91189 1.62381,-1.08414 -0.098,-2.98668 -1.93185,-2.13466 -1.48187,-4.145 0.92779,-4.145 1.93576,0 1.82036,-1.9233 -0.25286,-4.21419 -1.60396,-1.77235 -1.57594,-1.9025 0.52804,-2.4527 1.62261,-0.42432 2.06129,-1.08704 1.62645,-2.45707 -0.67845,-2.13764 -0.14169,-2.31089 2.60509,-0.84086 1.64419,0.87995 1.93426,0.69999 1.93426,-1.2 0,-3.65797 1.94856,-0.70903 2.11339,3.1984 0.0804,1.90653 -0.60865,7.06642 -1.53129,11.46642 -1.68027,8.01312 -1.40295,14.37465 0.68282,15.66373 0.6253,0.38646 2.3794,-1.51043 4.15916,-4.49771 1.69279,-2.84131 4.08987,-5.61023 5.32686,-6.15315 3.16349,-1.38848 2.88355,-4.02414 -0.45677,-4.3006 -3.48723,-0.28861 -4.76535,-1.61582 -3.75101,-3.89505 0.73052,-1.64151 0.84678,-1.59966 1.20233,0.43278 0.29899,1.70913 1.07233,2.25 3.21707,2.25 1.58725,0 3.07548,-0.65675 3.39907,-1.5 0.31658,-0.825 1.21658,-1.5 2,-1.5 0.78341,0 1.70692,-0.73625 2.05223,-1.63612 0.57213,-1.49095 0.80345,-1.47719 2.60699,0.15499 1.92498,1.74208 1.97915,1.71844 1.97915,-0.86388 0,-2.65499 2.23166,-3.70721 3.50227,-1.65132 0.34116,0.55202 1.67529,0.73888 2.96473,0.41526 1.81629,-0.45586 2.50069,-0.0961 3.03805,1.59699 0.5084,1.60183 0.99015,1.88888 1.80406,1.07497 0.8139,-0.8139 1.722,-0.3987 3.40066,1.55488 1.25963,1.46592 2.29023,3.04532 2.29023,3.50977 0,1.63493 5.88907,0.86428 6.9199,-0.90554 0.91029,-1.56287 1.02253,-1.5094 1.04969,0.5 0.0258,1.91055 -0.49762,2.25 -3.46959,2.25 -1.925,0 -3.5,0.18 -3.5,0.4 0,0.22 1.575,1.975 3.5,3.9 1.925,1.925 3.5,4.17186 3.5,4.99301 0,0.82116 0.70352,1.76298 1.56338,2.09294 0.85986,0.32996 1.2833,1.0531 0.94098,1.60699 -0.34231,0.55388 0.28682,1.00706 1.39808,1.00706 1.4916,0 2.28036,-0.9816 3.01332,-3.75 1.21996,-4.60781 -1.39562,-8.40012 -2.27419,-13.75736 -0.55577,-3.38887 -0.26468,-4.45835 1.90519,-7 l 1.95111,-2.38705 -0.01,2.13356 c -0.59984,2.65816 -0.51177,2.72562 2.73776,2.09732 l 2.55222,-0.1023 -1.09968,1.6058 c -1.04774,1.18397 -1.49774,2.15956 -1,2.16798 0.49775,0.008 1.5206,0.40531 2.27302,0.88197 1.09464,0.69345 0.89709,1.3376 -0.98851,3.2232 -2.07795,2.07795 -2.15102,2.39614 -0.61804,2.69136 2.21162,0.42592 2.21226,2.0072 0.002,4.44974 -1.65301,1.82656 -1.64306,1.98754 0.20648,3.33996 1.91124,1.39753 1.90752,1.44591 -0.22602,2.9403 -1.19308,0.83566 -0.42673,-1.12453 -1.86165,1.74614 -1.43493,2.87066 -3.70169,6.369 -5.03725,7.7741 -3.06782,3.22754 -3.04247,3.68964 0.40589,7.39767 2.94232,3.1639 8.16581,14.34073 8.16581,17.4726 0,0.98624 1.3443,4.44408 2.98733,7.68409 3.39354,6.69193 3.29118,6.39092 2.17319,6.39092 -0.46172,0 -1.35207,-1.125 -1.97857,-2.5 -1.35418,-2.97211 -3.18195,-3.29322 -3.18195,-0.55902 0,1.06754 -0.45,2.2191 -1,2.55902 -0.55,0.33992 -1,-0.26112 -1,-1.33565 0,-1.07452 -0.8501,-4.81358 -1.88911,-8.30901 -1.03901,-3.49544 -2.48725,-8.49284 -3.21831,-11.10534 -1.80136,-6.43725 -3.54014,-6.09235 -3.76361,0.74653 -0.12493,3.82283 0.36097,6.32158 1.59571,8.20603 0.97642,1.49021 1.61518,2.72927 1.41946,2.75346 -0.19573,0.0242 0.16271,1.96983 0.79653,4.32366 1.15935,4.30548 0.84454,21.11117 -0.45779,24.43861 -0.36988,0.94505 0.11012,3.76759 1.06667,6.27229 0.95656,2.50471 1.46806,4.82515 1.13667,5.15653 -0.33139,0.33139 -1.34522,-1.25364 -2.25295,-3.52229 -1.53885,-3.84596 -3.43327,-5.52068 -3.43327,-3.03511 0,1.13876 -3.95596,4.81936 -5.2419,4.87702 -0.40805,0.0183 -0.13154,-1.65423 0.61447,-3.71673 1.67329,-4.62616 4.54304,-20.33876 4.70298,-25.75 0.17022,-5.7587 0.044,-6.5 -1.10694,-6.5 -1.12818,0 -1.37194,0.54992 -2.90476,6.55309 -1.64228,6.43189 -6.94418,11.81837 -13.76014,13.97965 -6.8637,2.17641 -11.15457,2.34174 -14.99575,0.57778 -8.28321,-3.80386 -9.92316,-4.87446 -11.8383,-7.72839 -1.15075,-1.71483 -2.65945,-5.65233 -3.35268,-8.75 -0.69323,-3.09767 -1.63859,-5.63213 -2.1008,-5.63213 -1.54188,0 -2.19025,7.84369 -1.09154,13.20485 0.59686,2.91233 1.28481,8.09394 1.52879,11.51469 0.24398,3.42074 0.95322,7.17178 1.5761,8.33564 0.62288,1.16386 0.87381,2.37481 0.55762,2.691 -0.82132,0.82132 -4.42058,-2.64599 -5.15777,-4.9687 -0.55266,-1.74126 -0.88859,-1.56596 -3.02553,1.57883 -1.32212,1.94567 -2.40385,4.23646 -2.40385,5.09064 0,0.85418 -0.45,1.55305 -1,1.55305 -0.55,0 -0.99769,-0.5625 -0.99488,-1.25 l -1.6e-4,0 z m 14.49488,-20.75 c -0.33992,-0.55 -0.14148,-1 0.44098,-1 0.58246,0 1.05902,0.45 1.05902,1 0,0.55 -0.19844,1 -0.44098,1 -0.24254,0 -0.7191,-0.45 -1.05902,-1 z"
           style="fill:#a2a196"
           sodipodi:nodetypes="csssssssssssssssssssssssssssssssssssssssssssssssssssssssccccccsssssssssssssssssssssssssssssssssssssssssssssscccsssc" />
        <path
           inkscape:connector-curvature="0"
           id="path3476"
           d="m 359.95438,484.23331 c 0.005,-0.55 1.26365,-3.27544 2.79744,-6.05653 2.25089,-4.08133 2.62218,-5.6242 1.92521,-8 -1.70529,-5.81289 0.9774,-28.20453 3.76717,-31.44347 0.71059,-0.825 1.39073,-3.975 1.51141,-7 0.28396,-7.11762 0.17198,-8 -1.01531,-8 -2.03651,0 -9.38908,20.98709 -8.78781,25.08382 0.33621,2.29077 0.15468,2.64675 -0.90236,1.76949 -0.72779,-0.60401 -1.32325,-1.9431 -1.32325,-2.97576 0,-2.69642 -1.11193,-2.34501 -4.31411,1.36343 -1.57548,1.82457 -2.36977,2.34252 -1.80459,1.17678 0.55523,-1.14524 1.70556,-2.65992 2.55629,-3.36597 0.85074,-0.70604 2.44469,-4.26903 3.54212,-7.91775 2.84436,-9.4569 9.97998,-20.13404 13.45573,-20.13404 2.21739,0 1.9385,-2.35231 -0.54478,-4.59501 -2.32374,-2.09861 -7.89066,-12.5186 -7.89066,-14.76948 0,-0.78185 -0.73625,-1.70406 -1.63612,-2.04937 -1.51483,-0.58129 -1.51483,-0.76187 0,-2.43573 2.02782,-2.24071 2.06527,-3.54936 0.14713,-5.14127 -1.4388,-1.1941 -1.12155,-3.50451 0.35583,-2.59143 0.40076,0.24768 1.25447,0.12535 1.89714,-0.27184 0.87435,-0.54038 0.81433,-1.40478 -0.23845,-3.43402 -1.41107,-2.71984 -0.82463,-3.61095 1.10589,-1.68043 0.70856,0.70856 0.89125,0.0764 0.58364,-2.01949 -0.43231,-2.94548 -0.35503,-3.01564 2.23628,-2.03043 2.48304,0.94405 2.64115,0.85189 2.11109,-1.23051 l -0.57297,-2.25099 1.18443,2.30905 c 0.93643,1.82556 0.8598,3.71005 -0.36598,9 -0.85272,3.68002 -1.63295,9.31519 -1.73385,12.52259 -0.28145,8.94719 3.24498,11.6855 6.33392,4.91836 2.86806,-6.28325 5.17994,-8.54091 7.48357,-7.30804 2.63899,1.41234 3.79186,1.34145 2.30845,-0.14196 -0.66,-0.66 -1.2,-1.9725 -1.2,-2.91667 0,-0.94416 -0.5625,-1.94364 -1.25,-2.22105 -0.74674,-0.30132 -0.54544,-0.53617 0.5,-0.58333 0.9625,-0.0434 1.75,-0.79145 1.75,-1.66228 0,-0.87084 0.5625,-1.39384 1.25,-1.16223 0.6875,0.2316 1.84077,-0.29339 2.56282,-1.16667 0.98034,-1.18565 1.44465,-1.2712 1.83333,-0.33777 0.80443,1.93182 2.35385,1.47698 2.35385,-0.69098 0,-2.63494 2.04853,-3.72369 3.18507,-1.69281 0.73053,1.3054 1.34083,1.42271 2.94237,0.56558 1.6905,-0.90472 2.10891,-0.74398 2.56074,0.9838 0.40343,1.54275 1.09556,1.92581 2.73579,1.51414 1.74511,-0.438 2.57839,0.15946 4.06033,2.91126 1.20774,2.24263 2.37449,3.26669 3.31201,2.90693 1.01015,-0.38763 0.89031,0.0952 -0.39669,1.59833 -1.01426,1.18456 -2.41909,2.15375 -3.12186,2.15375 -0.70277,0 -1.27776,0.47039 -1.27776,1.04531 0,0.6366 1.27073,0.80907 3.25,0.44111 2.98404,-0.55477 3.47504,-0.25567 6,3.65485 1.5125,2.34249 2.75,4.89648 2.75,5.67553 0,0.98092 0.69185,1.23105 2.25,0.81349 1.2375,-0.33164 2.55174,-0.60912 2.92054,-0.61663 1.80191,-0.0367 0.84531,-12.94427 -0.58254,-17.2707 -0.93607,-2.83632 -0.79461,-3.84352 0.93931,-6.68757 1.87135,-3.06947 2.04167,-3.15124 2.0451,-0.98175 0.003,1.98448 0.40738,2.28941 2.50374,1.88867 2.49378,-0.47672 3.39613,0.57287 1.5,1.74475 -1.51136,0.93407 -1.19817,2.5 0.5,2.5 1.94458,0 1.89652,0.90437 -0.16938,3.18716 -1.56113,1.72503 -1.55527,1.92808 0.0903,3.13136 1.60083,1.17055 1.61612,1.40585 0.16938,2.60654 -1.89759,1.57486 -2.09313,4.69697 -0.3403,5.43357 0.89287,0.37521 0.74577,0.84415 -0.5149,1.64136 -0.97069,0.61383 -0.69856,-0.40177 -2.35775,2.88507 -1.65919,3.28684 -4.12749,6.94188 -5.48511,8.12231 -1.35761,1.18043 -2.46839,2.48305 -2.46839,2.8947 0,0.41166 1.4625,2.31013 3.25,4.21882 3.24255,3.46241 7.09875,12.04245 8.39193,18.67205 0.37549,1.925 1.76715,5.23002 3.09258,7.34448 1.32542,2.11446 2.22806,4.02629 2.00585,4.24849 -0.22221,0.22221 -1.00573,-0.72031 -1.74117,-2.09448 -1.70594,-3.18758 -2.35834,-3.14323 -3.69977,0.25151 l -1.08666,2.75 -0.10638,-2.59345 c -0.0585,-1.4264 -1.00638,-5.20934 -2.10638,-8.40655 -1.1,-3.1972 -2.00251,-6.53015 -2.00558,-7.40655 -0.012,-3.43026 -2.17473,-9.20022 -3.30853,-8.82687 -1.66825,0.54934 -2.65255,12.81739 -1.1821,14.73342 3.21988,4.1956 4.8762,24.24015 2.51597,30.44802 -0.74575,1.96148 -0.51003,3.77112 0.98541,7.5651 1.08111,2.74278 1.74357,4.98688 1.47214,4.98688 -0.27143,0 -1.21372,-1.8 -2.09399,-4 -0.88026,-2.2 -1.9046,-4 -2.27629,-4 -0.3717,0 -1.47328,1.35 -2.44796,3 -1.90133,3.2187 -4.36945,4.19864 -3.14831,1.25 0.74214,-1.79201 2.5778,-10.63658 4.63442,-22.32946 1.19967,-6.8207 0.58384,-12.33021 -1.30773,-11.69969 -0.59883,0.19961 -1.90209,2.99156 -2.89614,6.20433 -2.47966,8.01429 -6.59508,12.0259 -15.17043,14.78778 l -6.82124,2.19693 -7.09694,-2.45495 c -4.07996,-1.41132 -8.27975,-3.66316 -9.87931,-5.29709 -2.65168,-2.70864 -4.97339,-9.09204 -4.97339,-13.67399 0,-1.49215 -0.52435,-2.02845 -1.75,-1.78989 -1.48603,0.28924 -1.74236,1.46931 -1.69937,7.82333 0.0497,7.34911 1.65248,21.05945 3.03741,25.9827 0.66858,2.37669 0.58899,2.35203 -1.61355,-0.5 -1.27425,-1.65 -2.65128,-3.38899 -3.06008,-3.86442 -0.40879,-0.47543 -2.12754,1.54957 -3.81945,4.5 -1.69191,2.95043 -3.07226,4.91442 -3.06746,4.36442 z m 21.19227,-44.54403 c 0.24572,-1.67421 0.16181,-3.22014 -0.18647,-3.43539 -0.34827,-0.21524 -0.73734,1.15457 -0.86459,3.04403 -0.28637,4.25221 0.44447,4.52433 1.05106,0.39136 z m 3.48596,-4.20597 c -0.23835,-1.2375 -0.43337,-0.225 -0.43337,2.25 0,2.475 0.19502,3.4875 0.43337,2.25 0.23836,-1.2375 0.23836,-3.2625 0,-4.5 z m -4.15981,-9.53742 c -1.55377,-1.55377 -2.31738,1.61468 -1.23239,5.11357 l 1.18647,3.82614 0.31258,-4.18023 c 0.17192,-2.29912 0.0519,-4.44089 -0.26666,-4.75948 z m 4.02932,0.0293 c -1.20652,-1.20652 -1.78148,0.78156 -1.00107,3.46152 l 0.81437,2.79657 0.38097,-2.84142 c 0.20954,-1.56278 0.12212,-3.10029 -0.19427,-3.41667 z m 4.42476,-16.85849 c 0,-2.2541 -0.47337,-3.38342 -1.41821,-3.38342 -0.78002,0 -2.0745,-0.25184 -2.87663,-0.55964 -1.87634,-0.72002 -3.13663,3.88492 -1.76477,6.44826 0.69449,1.29767 1.74342,1.70332 3.5242,1.3629 2.1188,-0.40504 2.53541,-1.04062 2.53541,-3.8681 z m 10,-14.38342 c 0,-0.55 -0.47656,-1 -1.05902,-1 -0.58246,0 -0.7809,0.45 -0.44098,1 0.33992,0.55 0.81648,1 1.05902,1 0.24254,0 0.44098,-0.45 0.44098,-1 z m -24,-6.5 c 0,-0.825 0.45,-1.5 1,-1.5 0.55,0 1,0.675 1,1.5 0,0.825 -0.45,1.5 -1,1.5 -0.55,0 -1,-0.675 -1,-1.5 z"
           style="fill:#5b5c55"
           sodipodi:nodetypes="csssssssssssssssssssssssscccsssssssssssssssssssssssssssssssssssssssssssssscccsssssssssssssscccssssssssccssccssccccccccccccssssccsssccsssc" />
        <path
           inkscape:connector-curvature="0"
           id="path3474"
           d="m 368.99946,478.09845 c -1.13992,-1.44917 -2.08016,-3.13667 -2.08943,-3.75 -0.009,-0.61333 -0.95345,0.34736 -2.0982,2.13486 -1.14474,1.7875 -2.29886,3.25 -2.56471,3.25 -0.26585,0 0.42844,-1.47531 1.54285,-3.27848 1.67129,-2.70421 1.86918,-3.97414 1.12972,-7.25 -0.8859,-3.92456 0.22806,-21.27757 1.59448,-24.83839 0.36893,-0.96144 1.28773,-1.51133 2.04175,-1.22199 0.87516,0.33584 1.37096,-0.18584 1.37096,-1.44252 0,-1.08274 -0.51974,-1.96862 -1.15499,-1.96862 -0.73101,0 -0.59388,-0.6424 0.37356,-1.75 0.8407,-0.9625 1.81838,-4.675 2.17264,-8.25 0.35425,-3.575 0.90784,-8.16572 1.2302,-10.20159 0.50279,-3.17543 0.18045,-4.0838 -2.26766,-6.39037 -1.85708,-1.74972 -2.41719,-2.84348 -1.60375,-3.13174 0.6875,-0.24363 1.25,-1.06634 1.25,-1.82825 0,-0.7619 0.5625,-1.17825 1.25,-0.92521 0.73364,0.27002 2.53131,-1.91166 4.35179,-5.28138 3.19734,-5.91833 3.82099,-6.23374 9.39821,-4.75318 l 2.5,0.66366 -2.25,-1.98626 c -3.31224,-2.92399 -2.76212,-8.16568 0.85699,-8.16568 1.0948,0 1.89301,-0.69784 1.89301,-1.65499 0,-1.5069 0.17312,-1.49831 1.93482,0.096 1.65255,1.49554 1.76375,2.13819 0.7622,4.40499 -0.64495,1.4597 -1.6335,3.104 -2.1968,3.654 -0.56329,0.55 -0.83827,0.8945 -0.61107,0.76554 0.2272,-0.12895 0.99414,0.54605 1.7043,1.5 1.2071,1.62148 1.44152,1.5838 3.59888,-0.57859 l 2.30767,-2.31305 -3,0.67097 c -2.81288,0.62913 -2.87525,0.58105 -1,-0.77078 3.40148,-2.45207 5.28464,-2.74051 6.67689,-1.02269 0.81464,1.00514 0.86929,1.36033 0.14221,0.92425 -0.6495,-0.38955 -1.46552,-0.24776 -1.81338,0.3151 -0.34787,0.56286 0.15655,1.32616 1.12093,1.69622 0.98144,0.37662 1.91832,0.17811 2.12799,-0.45088 0.20602,-0.61806 1.08786,-0.85002 1.95964,-0.51549 1.30825,0.50202 1.46003,0.11006 0.8691,-2.24441 -0.94138,-3.75075 -3.29377,-5.35273 -7.31177,-4.9793 -2.85055,0.26494 -3.27161,0.003 -3.27161,-2.03739 0,-2.57547 1.50204,-4.07424 2.48659,-2.48119 0.34364,0.55602 1.55404,1.50825 2.68978,2.11608 1.30115,0.69636 1.82936,0.7239 1.428,0.0745 -0.35035,-0.56687 -0.24546,-1.27265 0.23309,-1.56841 0.47855,-0.29576 1.40743,0.6416 2.06419,2.08303 0.90699,1.99062 1.47347,2.3414 2.35599,1.45887 0.88253,-0.88253 1.71257,-0.52104 3.45213,1.50341 2.63188,3.06292 2.96358,5.88187 0.79023,6.71586 -2.9528,1.1331 -1.65549,3.25471 1.75,2.86192 2.75895,-0.31821 3.52313,0.0902 5.05775,2.70286 0.99426,1.69273 1.5302,3.52678 1.19098,4.07565 -0.33922,0.54886 0.0848,0.99794 0.94225,0.99794 0.85746,0 1.55902,0.6126 1.55902,1.36133 0,0.92794 0.83039,1.20259 2.60839,0.8627 4.30172,-0.82233 3.37715,-1.8336 2.76709,-13.92562 -0.38858,-7.70196 -0.18148,-10.64886 0.84332,-12 1.26315,-1.66539 1.36869,-1.61568 1.50534,0.70905 0.0808,1.375 0.10661,3.4 0.0573,4.5 -0.0493,1.1 0.13957,1.5029 0.41973,0.89534 0.594,-1.28813 5.43962,-0.60661 5.43962,0.76507 0,0.51 -0.5625,0.85422 -1.25,0.76494 -3.53251,-0.45871 -4.55198,0.11588 -3.99366,2.25091 l 0.56911,2.17626 0.80505,-2.17626 c 1.038,-2.80597 2.21862,-2.85161 1.32987,-0.0514 -0.42273,1.33192 -0.17112,2.43589 0.67426,2.95836 1.07408,0.66382 1.09586,1.0863 0.10701,2.07515 -1.60245,1.60246 -1.59769,4.53836 0.008,5.1546 0.84624,0.3247 0.55341,0.99481 -0.90656,2.07459 -1.18611,0.87723 -0.76621,-0.4111 -1.95037,2.03505 -1.18416,2.44615 -3.92621,6.38738 -6.09344,8.7583 -4.04559,4.42576 -4.7327,5.81164 -2.88144,5.81164 0.58246,0 0.72107,-0.5625 0.30804,-1.25 -0.5165,-0.85971 -0.22613,-0.82433 0.92997,0.11331 0.92452,0.74982 1.42745,1.77347 1.11763,2.27477 -0.30983,0.50131 0.009,0.78782 0.70788,0.6367 1.86615,-0.40338 9.27746,14.57834 9.27746,18.75407 0,1.90913 0.31185,3.47115 0.69301,3.47115 0.38116,0 0.961,0.69837 1.28855,1.55194 0.34149,0.88992 0.17385,1.29132 -0.39301,0.94098 -0.5437,-0.33602 -0.98855,0.28905 -0.98855,1.38905 0,3.395 -1.75277,3.28873 -2.30897,-0.13999 -0.28925,-1.78309 -1.58526,-7.51698 -2.88001,-12.74198 -1.91592,-7.73173 -2.72235,-9.55338 -4.33256,-9.78678 -1.85285,-0.26858 -1.97883,0.31952 -1.98424,9.26327 -0.004,6.88912 0.32059,9.42482 1.16556,9.10057 3.38815,-1.30015 4.28924,22.91522 1.04579,28.10384 -0.40601,0.6495 -0.28085,1.46356 0.27812,1.80902 0.55897,0.34546 1.00263,1.38906 0.9859,2.3191 -0.0269,1.49665 -0.15367,1.47893 -1.10298,-0.15425 -0.98463,-1.69393 -1.23253,-1.58219 -3.02348,1.36278 -1.073,1.76441 -2.14866,3.01026 -2.39036,2.76856 -0.24169,-0.2417 0.56372,-4.90495 1.78982,-10.36278 2.74577,-12.22252 3.04449,-23.7345 0.6281,-24.20575 -1.18391,-0.23088 -1.82182,0.70838 -2.33349,3.43583 -0.97094,5.17556 -3.97261,10.75732 -7.11352,13.22796 -1.44766,1.13874 -5.65272,3.04328 -9.34457,4.23232 l -6.71245,2.16189 -7.84068,-3.38779 c -4.4065,-1.90395 -8.66319,-4.4984 -9.71856,-5.92345 -1.03283,-1.39462 -2.37553,-5.53896 -2.98379,-9.20965 -0.97277,-5.87048 -1.31497,-6.5621 -2.8424,-5.74465 -0.95507,0.51114 -1.97916,2.18048 -2.27575,3.70965 -0.6676,3.44193 1.74278,25.77931 3.18654,29.53031 1.32709,3.44787 0.82698,3.47952 -1.81944,0.11514 l 4e-4,-3e-5 z m 35.11492,-14.04825 c -0.72188,-0.28888 -1.58438,-0.25335 -1.91667,0.0789 -0.33229,0.33229 0.25834,0.56864 1.3125,0.52522 1.16495,-0.048 1.4019,-0.28494 0.60417,-0.60417 l 0,5e-5 z m -14.21646,-1.27783 c 0.80907,-0.51167 1.25836,-1.14299 0.99843,-1.40293 -0.25994,-0.25993 -1.34542,0.1656 -2.41217,0.94563 -2.13344,1.56001 -0.94021,1.94598 1.41374,0.4573 z m 5.13007,-14.78906 c 0.0556,-4.8125 0.28358,-11.75911 0.5066,-15.4369 0.23445,-3.86627 -0.0191,-6.94933 -0.60111,-7.30902 -0.96898,-0.59886 -1.12153,1.97845 -1.4055,23.74589 -0.0556,4.26248 0.2364,7.74998 0.6489,7.75 0.4125,2e-5 0.7955,-3.93747 0.85111,-8.74997 z m -9.15651,-9.84171 0.92783,-8.90829 -0.27297,8.28676 c -0.15013,4.55771 0.0839,7.92989 0.52006,7.49372 1.39468,-1.39468 2.24576,-16.81197 1.04246,-18.88416 -1.01832,-1.75366 -1.10939,-1.70824 -1.21052,0.60368 l -0.10936,2.5 -1.00438,-2.75 c -1.00336,-2.74719 -2.83772,-3.77824 -2.83772,-1.59501 0,0.67509 -0.78974,0.44028 -1.90072,-0.56514 -1.26615,-1.14585 -2.12387,-1.35908 -2.5691,-0.63868 -0.94081,1.52226 -2.53018,0.2966 -2.53018,-1.95117 0,-1.03508 -0.46804,-2.17123 -1.04008,-2.52477 -1.43501,-0.88689 -0.0782,4.57677 1.62677,6.55089 1.48344,1.7176 2.63053,7.77228 2.79984,14.77842 0.13854,5.73308 1.91542,6.20125 2.63957,0.69546 l 0.52609,-4 0.77383,5.36674 c 0.42561,2.9517 0.98014,5.16043 1.23229,4.90829 0.25214,-0.25215 0.87597,-4.46718 1.38629,-9.36674 z m -3.7126,-4.40829 c 0,-1.925 0.2058,-2.7125 0.45733,-1.75 0.25152,0.9625 0.25152,2.5375 0,3.5 -0.25153,0.9625 -0.45733,0.175 -0.45733,-1.75 z m 8.37217,6.27083 c -0.3323,-0.33229 -0.56864,0.25834 -0.52522,1.3125 0.048,1.16495 0.28494,1.4019 0.60416,0.60417 0.28887,-0.72188 0.25335,-1.58437 -0.0789,-1.91667 l -4e-5,0 z m 11,-2 c -0.3323,-0.33229 -0.56864,0.25834 -0.52522,1.3125 0.048,1.16495 0.28494,1.4019 0.60416,0.60417 0.28887,-0.72188 0.25335,-1.58437 -0.0789,-1.91667 l -4e-5,0 z m 0.0829,-8.03249 c -0.25029,-0.95609 -0.446,0.0617 -0.4349,2.26166 0.0111,2.2 0.21589,2.98225 0.45508,1.73834 0.23919,-1.24391 0.23011,-3.04391 -0.0202,-4 l 2e-5,0 z m 8.95191,-3.29337 c -0.29186,-1.45932 -0.0544,-3.12955 0.52767,-3.71164 0.58209,-0.58208 0.85811,-1.65901 0.61339,-2.39317 -0.85643,-2.56929 -2.5937,2.56863 -3.10379,9.17939 -0.4984,6.45913 -0.49512,6.4691 0.99667,3.02959 0.8232,-1.89798 1.25792,-4.64485 0.96606,-6.10417 z m -3.97671,-4.19497 c -0.27741,-0.6875 -0.50439,-0.125 -0.50439,1.25 0,1.375 0.22698,1.9375 0.50439,1.25 0.27741,-0.6875 0.27741,-1.8125 0,-2.5 z m -17.16228,-6.75 c -0.29294,-0.47399 -0.16497,-1.08903 0.28439,-1.36675 0.44936,-0.27772 0.92966,-2.41393 1.06733,-4.74713 0.13767,-2.33321 0.47891,-4.61207 0.75831,-5.06415 0.2794,-0.45209 0.005,-0.82197 -0.61003,-0.82197 -0.62828,0 -0.78907,-0.54756 -0.36706,-1.25 0.51028,-0.84936 0.20868,-0.81011 -0.94098,0.12245 -1.47415,1.19576 -1.70212,1.13139 -1.77091,-0.5 -0.0434,-1.02985 -0.29,-1.35772 -0.54795,-0.72861 -0.25795,0.62912 -1.34742,0.91413 -2.42105,0.63337 -1.34159,-0.35083 -1.95205,-0.005 -1.95205,1.10616 0,0.88915 -0.40077,1.61663 -0.89059,1.61663 -0.48983,0 -1.07447,1.575 -1.2992,3.5 -0.22474,1.925 -0.0631,3.5 0.35921,3.5 0.42229,0 0.50879,0.675 0.19221,1.5 -0.36449,0.94984 0.0138,1.5 1.03138,1.5 0.88384,0 1.61388,0.5625 1.6223,1.25 0.0103,0.84393 0.35201,0.76272 1.05176,-0.25 0.91,-1.31699 1.17691,-1.2946 2.18767,0.18357 1.13619,1.66158 3.27743,1.48652 2.24526,-0.18357 z m 11.04202,-6.7713 c 0.48768,-4.97648 0.45881,-5.04092 -1.78422,-3.98238 -1.90428,0.89867 -2.21969,1.70753 -1.91436,4.90924 0.20106,2.10832 0.76854,3.58425 1.26106,3.27985 0.49253,-0.30439 0.8955,-0.002 0.8955,0.67224 0,3.12066 1.09876,-0.35582 1.54202,-4.87895 z m -25.54202,-0.28772 c 0,-0.58246 -0.45,-0.7809 -1,-0.44098 -0.55,0.33992 -1,0.81648 -1,1.05902 0,0.24254 0.45,0.44098 1,0.44098 0.55,0 1,-0.47656 1,-1.05902 z m 41.60417,-1.67015 c -0.3323,-0.33229 -0.56864,0.25834 -0.52522,1.3125 0.048,1.16495 0.28494,1.4019 0.60416,0.60417 0.28887,-0.72188 0.25335,-1.58438 -0.0789,-1.91667 l -4e-5,0 z m -58.08636,40.9954 c -0.41872,-1.77857 -1.11862,-3.01294 -1.55533,-2.74304 -0.77009,0.47594 -0.27896,-1.35215 2.76674,-10.29845 1.91439,-5.6232 7.37872,-13.72474 9.25708,-13.72474 0.81747,0 1.62916,0.9 1.80376,2 0.24155,1.5218 0.0917,1.66959 -0.62683,0.61811 -0.75822,-1.10958 -1.25132,-0.91253 -2.50242,1 -1.47289,2.25159 -4.45461,8.80013 -4.49947,9.88189 -0.0114,0.275 -0.55056,1.85 -1.19811,3.5 -0.64756,1.65 -1.51638,5.25 -1.93073,8 -0.74053,4.91483 -0.76633,4.94491 -1.51469,1.76623 z m 11.48219,-28.26623 c 0,-0.55 0.45,-1 1,-1 0.55,0 1,0.45 1,1 0,0.55 -0.45,1 -1,1 -0.55,0 -1,-0.45 -1,-1 z m -5.60135,-17.43085 c -2.2003,-4.72408 -2.69113,-6.7437 -1.93157,-7.94786 0.71322,-1.13067 0.64599,-2.2106 -0.22438,-3.60427 -1.48631,-2.37996 -1.55179,-3.01702 -0.31009,-3.01702 0.51294,0 1.23713,0.95946 1.60933,2.13213 0.51253,1.61486 0.87678,1.8084 1.5014,0.79774 0.45358,-0.73391 0.53819,-1.79795 0.18802,-2.36454 -0.35018,-0.56659 -0.71242,-1.71308 -0.80499,-2.54775 -0.0926,-0.83467 -0.52785,-2.3789 -0.96728,-3.43162 -0.55597,-1.33191 -0.45152,-1.69932 0.34341,-1.20802 0.6283,0.38831 1.7026,2.57588 2.38731,4.86126 1.16073,3.87418 1.29549,3.98971 1.99236,1.70802 0.49444,-1.6189 0.58292,-1.09333 0.26141,1.55278 -0.77604,6.38712 -0.7865,11.75783 -0.0295,15.1548 1.24512,5.58742 -0.97987,4.43174 -4.01542,-2.08565 l -1e-5,0 z m 1.25107,-8.85683 c -0.27576,-0.67973 -0.52651,-0.44352 -0.57077,0.53768 -0.0434,0.9625 -0.55551,1.75 -1.13797,1.75 -0.58246,0 -0.74518,0.50779 -0.36161,1.12842 0.88983,1.43979 2.77705,-1.67412 2.07035,-3.4161 z m 25.38208,-1.26232 c -0.0554,-1.83018 2.27721,-3.45 4.9682,-3.45 2.60442,0 5,1.59184 5,3.32245 0,0.50734 -0.68311,0.35551 -1.51802,-0.3374 -2.1566,-1.78982 -5.76987,-1.79315 -7.20018,-0.007 -0.67001,0.83686 -1.23251,1.04907 -1.25,0.47157 l 0,3.8e-4 z m -15.5318,-3.45 c -0.33992,-0.55 -0.14148,-1 0.44098,-1 0.58246,0 1.05902,0.45 1.05902,1 0,0.55 -0.19844,1 -0.44098,1 -0.24254,0 -0.7191,-0.45 -1.05902,-1 z m -8.5,-4.99243 c 0,-0.58869 0.70086,-1.33928 1.55747,-1.668 0.94278,-0.36178 1.31407,-1.2374 0.94075,-2.21861 -0.49282,-1.29533 -0.36485,-1.37096 0.63702,-0.37648 1.00387,0.99648 0.81639,1.65192 -0.94076,3.28896 -1.20696,1.12446 -2.19448,1.56282 -2.19448,0.97413 z m 60.64079,2.05891 c 0,-0.58246 0.45,-1.05902 1,-1.05902 0.55,0 1,0.19844 1,0.44098 0,0.24254 -0.45,0.7191 -1,1.05902 -0.55,0.33992 -1,0.14148 -1,-0.44098 z m -61.88696,-5.89981 c -0.2723,-1.04132 0.05,-1.83334 0.74617,-1.83334 0.69612,0 1.01847,0.79202 0.74616,1.83334 -0.26368,1.00833 -0.59946,1.83333 -0.74616,1.83333 -0.14671,0 -0.48248,-0.825 -0.74617,-1.83333 z"
           style="fill:#2e312d"
           sodipodi:nodetypes="cssssssssssssssssscccssssssscccssssssssssssssssssssssssssssssscccsssssssssssssssssssssssssssssssscccssssscccsscccssccssssccccsscccssssssscccsccssccsscccsscccsscccssssccssccssssssssssssssssssccssssccsssccsscccsssssssssccsssccssssssssssssscccsssccsssscccsssccssssccsssccsssc" />
        <path
           inkscape:connector-curvature="0"
           id="path3472"
           d="m 367.93371,475.98331 c -3.24793,-5.14798 -3.46883,-7.53735 -0.74535,-8.06184 1.31255,-0.25277 1.74927,0.35696 1.78241,2.48852 0.0241,1.55282 0.64612,4.51082 1.38216,6.57332 0.73605,2.0625 1.16713,3.75 0.95795,3.75 -0.20918,0 -1.72891,-2.1375 -3.37717,-4.75 z m 48.52514,3.25 c 0.84287,-2.42469 3.30616,-15.12038 4.26857,-22 0.39224,-2.80388 1.13868,-4.78039 1.69946,-4.5 1.04599,0.52299 1.01414,8.31521 -0.0654,16 -0.34768,2.475 -0.49578,4.5 -0.32911,4.5 0.16667,0 -0.45535,0.9 -1.38225,2 -0.92691,1.1 -2.40556,2.9 -3.2859,4 -1.60063,2 -1.60063,2 -0.90539,0 z m 5.46803,-12.05902 c 0,-0.85746 -0.45,-1.2809 -1,-0.94098 -0.55,0.33992 -1,1.04148 -1,1.55902 0,0.51754 0.45,0.94098 1,0.94098 0.55,0 1,-0.70156 1,-1.55902 z m -35.19509,-0.79983 -2.6951,-1.1964 4.4451,-1.59845 c 3.02065,-1.08622 4.45,-1.23759 4.4604,-0.47237 0.008,0.61934 0.42413,0.48001 0.92379,-0.30963 0.7545,-1.19237 1.17665,-1.21312 2.49085,-0.12244 0.87031,0.72229 3.0421,1.63239 4.82621,2.02243 l 3.24384,0.70916 -4,1.1577 c -4.98462,1.44267 -10.17962,1.3706 -13.69509,-0.19 z m -21.64702,-2.64115 c 0,-1.375 0.22698,-1.9375 0.50439,-1.25 0.27741,0.6875 0.27741,1.8125 0,2.5 -0.27741,0.6875 -0.50439,0.125 -0.50439,-1.25 z m 1.84211,1 c 0,-0.55 0.19844,-1 0.44098,-1 0.24254,0 0.7191,0.45 1.05902,1 0.33992,0.55 0.14148,1 -0.44098,1 -0.58246,0 -1.05902,-0.45 -1.05902,-1 z m 13.22917,-2.42654 c -4.27402,-1.55226 -6.12589,-4.34841 -6.793,-10.25677 -0.29911,-2.64918 -0.81122,-6.39169 -1.13802,-8.31669 -0.56655,-3.33727 -0.62915,-3.38377 -1.34648,-1 -0.63914,2.12393 -0.765,1.89829 -0.83668,-1.5 -0.0617,-2.92683 0.17571,-3.59756 0.88501,-2.5 0.70051,1.08396 0.9912,0.1132 1.04807,-3.5 0.0697,-4.43153 0.19694,-4.71576 1.11868,-2.5 l 1.03998,2.5 1.04945,-2.25 c 1.3743,-2.94648 2.58799,-2.88564 2.01703,0.10111 -0.24719,1.29311 0.005,3.9981 0.56113,6.01109 0.75961,2.75107 0.71941,3.49663 -0.16189,3.00219 -0.77156,-0.43288 -0.74505,-0.19733 0.0775,0.68891 0.6875,0.74068 1.25,2.35514 1.25,3.58768 0,1.23254 0.45735,2.52364 1.01632,2.8691 0.55897,0.34547 0.81366,0.95601 0.56598,1.35676 -0.71943,1.16406 1.22526,3.66451 2.11333,2.7173 0.44241,-0.47187 0.30728,-1.03704 -0.30028,-1.25593 -0.60757,-0.21889 -0.89362,-1.50204 -0.63566,-2.85144 0.5759,-3.01265 2.24031,-2.25246 2.24031,1.02323 0,1.31008 0.36857,2.60976 0.81906,2.88817 0.45048,0.27841 0.62798,-0.79564 0.39445,-2.38678 -0.35866,-2.44369 -0.0976,-2.86836 1.68094,-2.73439 2.56163,0.19296 2.62509,0.61356 0.35555,2.35632 -1.63389,1.25465 -1.60072,1.38581 0.5,1.97688 1.2375,0.34818 2.25,1.33058 2.25,2.1831 0,0.85252 0.20476,1.34527 0.45502,1.09501 0.25026,-0.25026 0.7325,-7.39539 1.07164,-15.87807 0.33914,-8.48268 0.81218,-15.73948 1.05121,-16.12623 0.23902,-0.38676 -0.004,-0.85412 -0.5399,-1.0386 -0.53597,-0.18447 -1.03663,-1.68541 -1.11257,-3.33541 -0.12638,-2.74557 0.39273,-5.58354 2.83518,-15.5 l 0.86206,-3.5 0.62813,5.13659 c 0.34547,2.82512 0.35965,7.7379 0.0315,10.91729 -0.52281,5.06552 -0.39556,5.70357 1.02852,5.15709 0.89383,-0.34299 1.86403,-0.23711 2.15599,0.23529 0.29196,0.4724 -0.81863,1.32934 -2.46798,1.90431 l -2.99881,1.04539 -0.0137,15.30202 c -0.008,8.41611 -0.26863,16.25196 -0.58027,17.413 -0.46341,1.72646 -7.23668,6.69782 -8.54223,6.26971 -0.20011,-0.0656 -1.83571,-0.65387 -3.63467,-1.30723 z m -4.3694,-19.57346 c -0.0973,-2.75 -0.61185,-5 -1.14337,-5 -0.54904,0 -0.69648,1.34962 -0.3414,3.125 0.34375,1.71875 0.625,3.96875 0.625,5 0,1.03125 0.23327,1.875 0.51837,1.875 0.2851,0 0.43873,-2.25 0.3414,-5 z m 18.71547,-34.75809 c -1.17829,-1.1783 -1.64707,0.61512 -0.88612,3.39009 l 0.78646,2.868 0.33745,-2.84142 c 0.1856,-1.56278 0.0786,-3.10029 -0.23779,-3.41667 z m -27.41735,52.75809 c 0,-1.375 0.22698,-1.9375 0.50439,-1.25 0.27741,0.6875 0.27741,1.8125 0,2.5 -0.27741,0.6875 -0.50439,0.125 -0.50439,-1.25 z m 32.34211,0.47116 c -2.2,-0.79257 -4.1125,-1.44782 -4.25,-1.4561 -0.1375,-0.008 -0.20514,-2.60256 -0.15032,-5.76506 0.0761,-4.38829 0.28929,-5.15795 0.90032,-3.25 0.74532,2.32726 0.80753,2.34861 0.90032,0.30902 0.18018,-3.96032 2.0981,-3.61663 2.13148,0.38196 0.0298,3.56613 0.12543,3.68524 1.5,1.86789 0.80751,-1.06762 1.4682,-2.75512 1.4682,-3.75 0,-0.99488 0.51289,-1.80887 1.13976,-1.80887 0.62686,0 1.74596,-0.7875 2.48687,-1.75 1.25979,-1.63654 1.32989,-1.62034 1.08132,0.25 -0.1462,1.1 -0.55039,2.45496 -0.8982,3.01103 -0.34782,0.55606 -0.0474,1.81104 0.66756,2.78883 1.19141,1.62935 1.39377,1.50871 2.4233,-1.44461 0.66254,-1.90055 0.74809,-3.45476 0.20856,-3.78883 -0.52067,-0.32239 -0.30798,-1.85889 0.4937,-3.56642 l 1.40848,-3 -0.54576,2.83379 c -0.7557,3.92392 1.19663,2.48061 2.07904,-1.53698 l 0.6985,-3.18025 1.29722,2.94172 1.29721,2.94172 0.0812,-4.25 c 0.0447,-2.3375 0.55778,-4.25 1.14024,-4.25 0.58246,0 0.80424,-0.41224 0.49284,-0.91608 -0.31139,-0.50385 -0.12409,-2.07885 0.41624,-3.5 0.54032,-1.42116 0.65604,-2.58495 0.25715,-2.5862 -0.39889,-10e-4 -0.77615,-1.41025 -0.83836,-3.13109 -0.0927,-2.56305 0.066,-2.80871 0.87757,-1.35856 1.20392,2.1513 1.06902,12.75114 -0.2157,16.94737 -0.51267,1.67451 -1.42503,5.56231 -2.02747,8.63957 -0.78153,3.99202 -2.05452,6.64218 -4.44319,9.25 -3.69448,4.03343 -5.76988,4.39877 -12.0781,2.12615 z m -34.42105,-6.17194 c -0.13548,-3.77664 2.08615,-12.53516 2.95397,-11.64567 0.4542,0.46555 0.18069,3.32145 -0.60779,6.34645 -1.84509,7.07858 -2.24958,7.99219 -2.34618,5.29922 z m 56.58772,-4.96589 c -0.36667,-0.36666 -0.62799,-1.82916 -0.58072,-3.25 0.0844,-2.5366 0.10189,-2.52997 0.96694,0.3664 0.90899,3.04353 0.77489,4.04472 -0.38622,2.8836 z m 7.04032,-3.08333 c -0.28601,-1.5125 -0.84741,-3.875 -1.24757,-5.25 -0.60149,-2.06681 -0.30244,-1.89354 1.72584,1 1.34937,1.925 2.25722,4.2875 2.01744,5.25 -0.65165,2.61578 -1.90711,2.11273 -2.49571,-1 z m -70.70699,-0.80902 c 0,-0.87898 -0.47971,-1.26254 -1.09977,-0.87932 -0.79969,0.49424 -0.79969,0.119 0,-1.37524 0.60487,-1.13022 1.10012,-2.87202 1.10056,-3.87068 0.001,-3.00708 5.54409,-13.64215 8.50344,-16.31574 l 2.7672,-2.5 -1.2817,2.5 c -0.70493,1.375 -1.90047,2.86516 -2.65675,3.31146 -0.75627,0.4463 -1.11623,1.23024 -0.79989,1.74208 0.31633,0.51184 0.0668,1.72168 -0.55447,2.68854 -1.06818,1.66228 -1.10003,1.66271 -0.58551,0.008 0.96659,-3.10875 -0.45071,-1.85639 -1.94414,1.71788 -1.86417,4.4616 -1.82523,5.08796 0.21168,3.40456 1.49045,-1.23177 1.54405,-1.16745 0.52299,0.62756 -0.62571,1.1 -1.61535,3.9125 -2.1992,6.25 -1.07536,4.3054 -1.98444,5.53815 -1.98444,2.691 z m 60,-2.38196 c 0,-1.06754 0.38499,-2.17893 0.85554,-2.46974 0.47055,-0.29082 0.64309,0.58263 0.38343,1.94098 -0.56402,2.95046 -1.23897,3.23851 -1.23897,0.52876 z m 11.71773,-1.74249 c -0.26539,-0.44909 -0.83674,-2.39153 -1.26965,-4.31653 -0.7664,-3.40791 -0.8086,-3.43422 -1.60406,-1 -0.68827,2.10619 -0.74426,1.98804 -0.35549,-0.75 0.25381,-1.7875 0.0227,-3.25 -0.51353,-3.25 -0.53625,0 -0.975,-0.70156 -0.975,-1.55902 0,-0.85746 0.42087,-1.2989 0.93526,-0.98099 1.12448,0.69497 5.31965,11.61843 4.70004,12.23804 -0.23927,0.23927 -0.65217,0.0676 -0.91757,-0.3815 z m -30.41807,-6.31653 c 0,-3.025 0.18747,-4.2625 0.41659,-2.75 0.22913,1.5125 0.22913,3.9875 0,5.5 -0.22912,1.5125 -0.41659,0.275 -0.41659,-2.75 z m 10.71565,2.80902 c -0.008,-0.93004 0.43469,-1.9691 0.98469,-2.30902 1.2656,-0.78218 1.2656,0.54163 0,2.5 -0.8354,1.29269 -0.97149,1.26629 -0.98469,-0.19098 z m 2.98469,-3.30902 c 0,-1.375 0.45,-2.5 1,-2.5 0.55,0 1,1.125 1,2.5 0,1.375 -0.45,2.5 -1,2.5 -0.55,0 -1,-1.125 -1,-2.5 z m -5.92105,-6.91667 c -0.0434,-1.05416 0.19292,-1.64479 0.52522,-1.3125 0.33229,0.33229 0.36781,1.19479 0.079,1.91667 -0.31923,0.79773 -0.55619,0.56078 -0.60417,-0.60417 z m -7,-1 c -0.0434,-1.05416 0.19292,-1.64479 0.52522,-1.3125 0.33229,0.33229 0.36781,1.19479 0.079,1.91667 -0.31923,0.79773 -0.55619,0.56078 -0.60417,-0.60417 z m 24,0 c -0.0434,-1.05416 0.19292,-1.64479 0.52522,-1.3125 0.33229,0.33229 0.36781,1.19479 0.079,1.91667 -0.31923,0.79773 -0.55619,0.56078 -0.60417,-0.60417 z m -48.57997,-0.58497 c -0.3857,-0.62409 -1.33076,-0.89315 -2.10013,-0.59792 -0.82226,0.31553 -1.39885,-0.0929 -1.39885,-0.99084 0,-0.8402 0.44322,-1.25371 0.98494,-0.91891 0.60389,0.37323 0.79864,-0.66785 0.50339,-2.69098 l -0.48155,-3.29971 1.08958,3.49844 c 0.59927,1.92414 1.59721,3.81218 2.21765,4.19563 0.62044,0.38345 0.84866,0.97659 0.50716,1.31809 -0.34149,0.3415 -0.93648,0.11029 -1.32219,-0.5138 z m 13.61702,0.33343 c -0.0638,-0.64252 -0.40723,-1.99252 -0.76318,-3 -0.50214,-1.42127 -0.36907,-1.57546 0.59378,-0.68801 0.68253,0.62908 1.02596,1.97908 0.76318,3 -0.26278,1.02092 -0.52998,1.33052 -0.59378,0.68801 z m -4.42068,-3.38889 c -0.3422,-1.30858 -0.11174,-1.91521 0.63337,-1.66714 1.43833,0.47887 2.18886,3.72424 0.86127,3.72424 -0.52619,0 -1.19877,-0.9257 -1.49464,-2.0571 z m 34.6618,-0.65614 c -0.32852,-1.30894 -0.31827,-2.65894 0.0228,-3 0.34106,-0.34105 0.6201,0.35491 0.6201,1.54657 0,1.19167 0.50625,2.05417 1.125,1.91667 0.61875,-0.1375 1.30625,0.2375 1.52778,0.83333 0.22153,0.59584 -0.29498,1.08334 -1.14778,1.08334 -0.85281,0 -1.81935,-1.07096 -2.14788,-2.37991 z m -42.68225,-0.69166 c -1.02908,-2.68172 -0.81944,-3.5951 0.82513,-3.5951 1.64322,0 1.73756,0.53476 0.60458,3.42689 -0.70047,1.78807 -0.80346,1.80019 -1.42971,0.16821 z m 4.09429,-0.55143 c -0.69118,-2.46113 -0.27771,-3.88556 0.81164,-2.7962 0.31944,0.31944 0.42272,1.63194 0.2295,2.91667 l -0.35131,2.33586 -0.68983,-2.45633 z m 21.13201,-3.30553 c 0.54032,-1.46063 1.65662,-2.23814 3.21338,-2.23814 1.96476,0 2.44109,-0.57824 2.70096,-3.27879 0.23324,-2.42392 0.7547,-3.20611 2,-3 1.28737,0.21307 1.75766,-0.60526 1.99485,-3.47121 0.17071,-2.0625 0.65103,-3.75 1.06738,-3.75 0.41636,0 1.58088,2.5875 2.58783,5.75 1.00694,3.1625 2.02756,5.1847 2.26803,4.49377 0.24047,-0.69093 0.84879,-1.00187 1.35181,-0.69098 0.50302,0.31088 0.91459,-0.16287 0.91459,-1.05279 0,-1.02828 -0.45561,-1.34431 -1.25,-0.86706 -0.76361,0.45876 -0.68466,0.0549 0.20291,-1.03793 1.39331,-1.71554 1.47938,-1.71343 2.09846,0.0514 0.55506,1.58237 0.87187,1.40268 2.2601,-1.28187 0.88801,-1.71721 2.35069,-3.40468 3.25041,-3.74994 1.24182,-0.47653 0.97784,0.51797 -1.09597,4.12882 -3.46808,6.03853 -3.48283,6.05346 -6.46591,6.54525 -1.375,0.22669 -4.17305,1.15446 -6.21788,2.06173 -2.04484,0.90726 -4.33234,1.64957 -5.08334,1.64957 -0.75099,0 -1.67704,0.3116 -2.05788,0.69244 -0.38084,0.38084 -1.56437,0.8255 -2.63006,0.98813 -1.61997,0.24723 -1.80189,-0.0712 -1.10967,-1.94243 z m -18.34353,0.35512 c -0.30822,-0.49871 0.34022,-0.67123 1.44098,-0.38337 2.33499,0.61061 2.63015,1.29011 0.5604,1.29011 -0.79254,0 -1.69317,-0.40803 -2.00138,-0.90674 z m -6.27228,-2.60594 c -2.53323,-1.77434 -2.95307,-8.67675 -0.66683,-10.963 0.75981,-0.7598 1.38147,-1.83705 1.38147,-2.39387 0,-0.55683 0.3375,-1.2211 0.75,-1.47615 0.4125,-0.25506 0.70718,0.95589 0.65485,2.69098 -0.0632,2.09735 -0.6539,3.26388 -1.76224,3.4804 -0.9169,0.17913 -1.40549,0.74897 -1.08576,1.26631 0.31974,0.51735 1.00025,0.68174 1.51225,0.3653 0.51199,-0.31643 0.9309,0.32468 0.9309,1.42468 0,1.1 0.45,2.27811 1,2.61803 1.17326,0.72511 1.35991,4.5 0.22251,4.5 -0.42763,0 -1.74934,-0.6807 -2.93715,-1.51268 z m -6.57423,-3.25403 c -0.92605,-1.02326 -1.28032,-2.31232 -0.83399,-3.03451 0.54527,-0.88226 1.13597,-0.46542 1.98686,1.40207 1.49376,3.27847 0.98663,3.99656 -1.15287,1.63244 z m -3.69582,-6.54231 c -0.008,-1.54496 -0.41816,-2.56004 -0.91053,-2.25574 -0.97644,0.60348 -2.48015,-2.39321 -1.62832,-3.24504 0.28795,-0.28794 0.55517,0.11397 0.59382,0.89313 0.0476,0.95927 0.29265,0.85543 0.75898,-0.32162 0.54277,-1.36997 0.91705,-1.00868 1.76646,1.70513 0.59278,1.89388 0.70813,4.02611 0.25634,4.73829 -0.54206,0.85448 -0.82664,0.33951 -0.83675,-1.51415 z m 59.98469,-4.69098 c 0,-0.55 0.5625,-1.01431 1.25,-1.0318 0.68936,-0.0175 0.35516,-0.70802 -0.74513,-1.53949 -1.38485,-1.0465 -1.63915,-1.72769 -0.83135,-2.22693 0.64008,-0.39559 1.35337,-2.29033 1.58509,-4.21052 0.32658,-2.70626 0.4573,-2.31786 0.58135,1.72736 0.13811,4.50368 0.39978,5.13421 1.91004,4.6025 1.36522,-0.48064 1.26448,-0.14393 -0.45819,1.53139 -2.43036,2.36356 -3.29181,2.66386 -3.29181,1.14749 z m -42.5,-3 c -0.33992,-0.55 -0.14148,-1 0.44098,-1 0.58246,0 1.05902,0.45 1.05902,1 0,0.55 -0.19844,1 -0.44098,1 -0.24254,0 -0.7191,-0.45 -1.05902,-1 z m -21.93571,-1.70687 c -0.54268,-1.4252 -0.42782,-1.54006 0.5598,-0.5598 0.68342,0.67834 0.99067,1.48524 0.68278,1.79313 -0.30789,0.30789 -0.86705,-0.24711 -1.24258,-1.23333 z m 21.44649,-2.78014 c -1.78835,-2.15483 -0.44452,-6.51299 2.00827,-6.51299 1.20784,0 1.99336,-0.68298 2.01275,-1.75 0.0299,-1.64486 0.11366,-1.64207 1.39423,0.0465 1.47093,1.93955 1.00282,5.70352 -0.70933,5.70352 -0.57752,0 -0.77146,0.27857 -0.43099,0.61905 0.57317,0.57316 -1.57929,3.38095 -2.59184,3.38095 -0.24694,0 -1.00433,-0.66916 -1.68309,-1.48701 z m 20.17462,0.2104 c -1.92596,-2.32063 -2.38803,-6.31034 -0.87615,-7.56508 1.15607,-0.95946 1.72218,-0.74897 2.88904,1.0742 2.63211,4.11257 2.83452,5.67956 0.86948,6.73122 -1.30938,0.70076 -2.16021,0.62982 -2.88237,-0.24034 z m 22.0466,-1.72339 c 0,-1.925 0.2058,-2.7125 0.45733,-1.75 0.25152,0.9625 0.25152,2.5375 0,3.5 -0.25153,0.9625 -0.45733,0.175 -0.45733,-1.75 z m 3.768,1.81357 c 0,-0.86277 0.675,-2.12888 1.5,-2.81357 1.9084,-1.58383 1.88905,-0.0985 -0.0318,2.44113 -1.17536,1.55395 -1.4682,1.62824 -1.4682,0.37244 z m -66.70569,-0.48076 c 0.33183,-0.53692 -0.052,-2.23931 -0.8529,-3.78311 -1.2027,-2.3182 -1.2126,-2.6047 -0.0569,-1.64554 1.8788,1.55927 2.6819,4.93675 1.36709,5.74935 -0.58335,0.36053 -0.78913,0.21621 -0.4573,-0.3207 z m 63.4928,-7.99948 c 0.24532,-1.28333 0.56612,-2.33333 0.71289,-2.33333 0.14676,0 0.46757,1.05 0.71289,2.33333 0.25975,1.3588 -0.038,2.33334 -0.71289,2.33334 -0.6749,0 -0.97264,-0.97454 -0.71289,-2.33334 z m 3.21289,1.72569 c 0,-0.51754 0.44485,-1.21592 0.98855,-1.55194 0.56686,-0.35034 0.7345,0.0511 0.39301,0.94098 -0.66479,1.73242 -1.38156,2.04939 -1.38156,0.61096 z m -64.92105,-1.47569 c -0.0434,-1.05416 0.19292,-1.64479 0.52522,-1.3125 0.33229,0.33229 0.36781,1.19479 0.079,1.91667 -0.31923,0.79773 -0.55619,0.56078 -0.60417,-0.60417 z m 34.65226,-0.50317 c -0.43497,-1.66335 -0.30483,-2.05378 0.43724,-1.31171 0.5811,0.5811 0.85979,1.64682 0.61931,2.36826 -0.24965,0.74895 -0.70294,0.29565 -1.05655,-1.05655 z m -7.7159,0.10296 c 0.0527,-2.34993 1.63333,-2.88605 3.6631,-1.24245 l 2.17252,1.75921 -2.92546,0.0832 c -1.60901,0.0457 -2.91858,-0.22423 -2.91016,-0.59994 z"
           style="fill:#10100c" />
      </g>
      <path
         id="path3033"
         d="m 327.40216,417.27932 -19.19069,17.88679 60.06196,156.90511 12.45964,-14.87889 -53.33091,-159.91301 z"
         style="fill:#ececec;stroke:#000000;stroke-width:1.24009788px;stroke-linecap:butt;stroke-linejoin:miter;stroke-opacity:1"
         sodipodi:nodetypes="ccccc" />
      <path
         id="path3035"
         d="m 450.7192,471.37329 -166.928,8.04525 -10.45736,20.31194 172.99527,-8.12633 4.39009,-20.23086 z"
         style="fill:#cccccc;stroke:#000000;stroke-width:1.21797669px;stroke-linecap:butt;stroke-linejoin:miter;stroke-opacity:1"
         sodipodi:nodetypes="ccccc" />
    </g>
  </g>
</svg>
